<svg width="83" height="30" viewBox="0 0 83 30" fill="none" xmlns="http://www.w3.org/2000/svg">
<path fill-rule="evenodd" clip-rule="evenodd" d="M49.3262 1.61121C49.3344 1.45751 49.3107 1.30378 49.2567 1.15939C49.2027 1.015 49.1196 0.882962 49.0122 0.771327C48.9049 0.659693 48.7757 0.570799 48.6324 0.510049C48.4891 0.449299 48.3349 0.417967 48.179 0.417967C48.0231 0.417967 47.8688 0.449299 47.7255 0.510049C47.5822 0.570799 47.453 0.659693 47.3457 0.771327C47.2384 0.882962 47.1552 1.015 47.1012 1.15939C47.0472 1.30378 47.0236 1.45751 47.0317 1.61121L47.0317 9.81384C46.2817 9.0011 45.3665 8.35348 44.346 7.91325C43.3254 7.47298 42.2223 7.24995 41.1085 7.2587C40.0354 7.25981 38.9728 7.46955 37.982 7.87601C36.9907 8.28243 36.0907 8.87763 35.3325 9.6275C34.5742 10.3774 33.9734 11.2673 33.5635 12.2465C33.1542 13.2257 32.9436 14.2749 32.9449 15.3343C32.9462 16.3937 33.1585 17.4425 33.5705 18.4208C33.982 19.3991 34.585 20.2877 35.3446 21.0361C36.1041 21.7844 37.0059 22.3777 37.998 22.782C38.9897 23.1864 40.0526 23.3939 41.1258 23.3928C45.755 23.3928 49.3241 20.2763 49.3241 15.0052L49.3241 1.61327L49.3262 1.61121ZM41.141 21.1403C39.975 21.1361 38.8366 20.7904 37.8696 20.1471C36.903 19.5039 36.1512 18.5918 35.7099 17.5266C35.2685 16.4613 35.157 15.2907 35.39 14.163C35.623 13.0352 36.1897 12.0011 37.0184 11.1914C37.8467 10.3818 38.9002 9.83313 40.0451 9.61481C41.1899 9.3965 42.3745 9.51843 43.449 9.96513C44.5236 10.4118 45.4397 11.1632 46.0813 12.1242C46.723 13.0852 47.0614 14.2125 47.0536 15.3634C47.0501 16.1261 46.8943 16.8806 46.5951 17.5838C46.296 18.287 45.8594 18.9251 45.3102 19.4615C44.7611 19.9981 44.1102 20.4225 43.3948 20.7105C42.6794 20.9986 41.9136 21.1446 41.141 21.1403ZM31.3882 14.9438C31.2836 12.6283 29.0154 7.3958 23.3986 7.3958C22.2582 7.39798 21.1308 7.63682 20.0894 8.0969C19.0485 8.55697 18.1173 9.22794 17.3556 10.0663C16.5944 10.9047 16.0203 11.8917 15.6701 12.9633C15.32 14.0349 15.2024 15.1672 15.3243 16.2867C15.4462 17.4062 15.8054 18.4878 16.3782 19.4615C16.951 20.4351 17.7248 21.279 18.649 21.9384C19.5737 22.5978 20.6285 23.0579 21.7447 23.2889C22.8613 23.52 24.0142 23.5167 25.1291 23.2794C25.1334 23.2787 25.1377 23.2787 25.1416 23.2794C26.7467 22.9184 28.2036 22.0854 29.3193 20.8903C29.4261 20.7977 29.5125 20.6843 29.5731 20.5571C29.6336 20.43 29.6664 20.2919 29.6703 20.1515C29.6742 20.0111 29.6483 19.8715 29.5951 19.7414C29.5415 19.6112 29.4611 19.4935 29.3595 19.3954C29.2596 19.2952 29.1412 19.2155 29.0102 19.1609C28.8792 19.1063 28.7387 19.0779 28.5965 19.0773C28.4543 19.0767 28.3134 19.104 28.1819 19.1575C28.0505 19.2111 27.9312 19.2898 27.8309 19.3892C27.575 19.6026 27.329 19.8284 27.0653 20.0346C26.3002 20.6025 25.4105 20.9852 24.4681 21.152C23.5257 21.3187 22.557 21.2647 21.6396 20.9944C20.7223 20.724 19.8819 20.2449 19.1864 19.5956C18.4908 18.9462 17.9595 18.1448 17.6349 17.2557C17.4002 16.5711 17.4922 16.534 18.2539 16.534L29.835 16.534C30.9992 16.5294 31.4401 16.1036 31.3882 14.9438ZM28.4443 14.3768L18.0006 14.3768C17.5099 14.3768 17.3898 14.2474 17.5134 13.7582C17.8402 12.5055 18.5777 11.3949 19.6118 10.6C20.6454 9.8051 21.9167 9.37078 23.227 9.36487C24.5373 9.359 25.813 9.78187 26.8539 10.5674C27.8949 11.353 28.6428 12.457 28.9808 13.7067C29.1096 14.2103 28.9713 14.3747 28.4439 14.3747L28.4443 14.3768ZM82.8077 15.8778C82.8077 11.8056 81.1947 9.70511 77.9138 8.19067C72.9823 5.91281 67.0555 9.36898 66.574 14.6855C66.1865 18.9474 69.2789 22.764 73.2497 23.2748C74.559 23.4591 75.8938 23.3463 77.1523 22.9449C78.4109 22.5435 79.5602 21.8641 80.5127 20.9583L80.5127 22.5181C80.5119 22.6608 80.5418 22.802 80.6004 22.9324C80.6589 23.0628 80.7449 23.1795 80.8525 23.2747C80.9602 23.3699 81.0871 23.4415 81.2248 23.4847C81.3626 23.5279 81.5081 23.5418 81.6516 23.5253C81.7948 23.5364 81.9389 23.519 82.0751 23.4741C82.2114 23.4292 82.3372 23.3578 82.445 23.264C82.5528 23.1703 82.6405 23.0562 82.7028 22.9284C82.7651 22.8006 82.8008 22.6618 82.8077 22.5202L82.8077 15.8758L82.8077 15.8778ZM80.4955 15.4139C80.5119 16.9514 79.9102 18.4325 78.822 19.5326C77.7339 20.6327 76.2483 21.262 74.6909 21.2825C73.1259 21.2919 71.6213 20.6872 70.508 19.6014C69.3946 18.5157 68.7639 17.0378 68.7544 15.493C68.7449 13.9482 69.3575 12.4629 70.4574 11.3639C71.5573 10.265 73.0544 9.64228 74.6193 9.63294C75.3907 9.62733 76.1555 9.77283 76.8694 10.061C77.5835 10.3491 78.2325 10.7742 78.7789 11.3116C79.3253 11.849 79.7584 12.488 80.0529 13.1918C80.3475 13.8955 80.4978 14.6499 80.495 15.4113L80.4955 15.4139ZM64.9161 22.2274C64.9088 22.3722 64.8723 22.514 64.8087 22.6447C64.745 22.7754 64.6556 22.8922 64.5456 22.9882C64.4356 23.0843 64.3073 23.1576 64.1682 23.204C64.029 23.2504 63.8819 23.2689 63.7354 23.2583C60.4175 23.2583 56.1063 21.0269 56.1063 15.0036L56.1063 1.61173C56.0981 1.45803 56.1218 1.30429 56.1758 1.1599C56.2297 1.01551 56.3129 0.883485 56.4203 0.771851C56.5276 0.660216 56.6568 0.571318 56.8001 0.510568C56.9433 0.449818 57.0976 0.418486 57.2535 0.418486C57.4094 0.418486 57.5637 0.449818 57.7069 0.510568C57.8502 0.571318 57.9795 0.660216 58.0868 0.771846C58.1941 0.883481 58.2773 1.01551 58.3313 1.1599C58.3853 1.30429 58.4089 1.45803 58.4008 1.61173L58.4008 9.03448C58.3973 9.22211 58.4693 9.40344 58.6011 9.53874C58.7328 9.67404 58.9136 9.75221 59.1036 9.75611L63.6373 9.75611C63.9116 9.76365 64.1722 9.87675 64.3633 10.0713C64.5544 10.2658 64.661 10.5264 64.6602 10.7974C64.6605 11.0706 64.5528 11.3333 64.36 11.5293C64.1817 11.7008 63.945 11.8002 63.6963 11.8082L59.101 11.8082C59.0079 11.8068 58.9155 11.8239 58.8293 11.8586C58.743 11.8933 58.6648 11.9447 58.5992 12.0099C58.5335 12.0752 58.4819 12.1527 58.4474 12.2381C58.4128 12.3234 58.3961 12.4148 58.3981 12.5067L58.3981 15.5866C58.4099 17.0287 58.986 18.4104 60.0061 19.4428C61.0261 20.4752 62.4111 21.0782 63.8712 21.1258C64.0153 21.122 64.1586 21.1484 64.2917 21.2033C64.4248 21.2581 64.5446 21.3401 64.6432 21.4439C64.7419 21.5477 64.8172 21.671 64.8641 21.8056C64.911 21.9401 64.9286 22.083 64.9155 22.2248L64.9161 22.2274ZM14.8635 8.0762C14.863 8.22354 14.8319 8.36921 14.7714 8.50404L8.52174 22.4939C8.42707 22.6345 8.29825 22.749 8.14651 22.8268C7.99477 22.9045 7.82532 22.9428 7.65456 22.9382C7.41075 22.9387 7.17299 22.8629 6.97543 22.7218C6.77788 22.5807 6.63089 22.3814 6.55481 22.1526C6.51331 22.0583 0.520019 8.39372 0.520019 8.39372C0.458206 8.25911 0.426216 8.11314 0.425781 7.96537C0.424919 7.71988 0.509643 7.48155 0.665695 7.29037C0.821754 7.09918 1.03963 6.96671 1.28258 6.91515C1.52596 6.8636 1.77972 6.89604 2.00149 7.00708C2.22325 7.11812 2.39962 7.30104 2.50121 7.52518L7.69563 19.066L7.70254 19.0784L12.7841 7.64527C12.8844 7.42074 13.0599 7.23697 13.2813 7.12481C13.5022 7.01261 13.7559 6.97875 13.9993 7.0289C14.2427 7.07908 14.461 7.21018 14.6183 7.40034C14.7757 7.5905 14.8622 7.82818 14.863 8.07362L14.8635 8.0762Z" fill="#2B1C34"/>
<path fill-rule="evenodd" clip-rule="evenodd" d="M39.5011 15.4139C39.5006 15.092 39.5966 14.7772 39.7774 14.5093C39.9581 14.2413 40.2153 14.0323 40.5164 13.9087C40.8175 13.7851 41.1489 13.7524 41.4688 13.8149C41.7887 13.8773 42.0826 14.032 42.3134 14.2594C42.5442 14.4868 42.7015 14.7766 42.7653 15.0923C42.8292 15.4079 42.7967 15.7352 42.6721 16.0327C42.5474 16.3301 42.3362 16.5844 42.0651 16.7632C41.794 16.9421 41.4753 17.0376 41.1492 17.0376C40.933 17.0378 40.7188 16.996 40.519 16.9145C40.3192 16.833 40.1376 16.7134 39.9846 16.5627C39.8315 16.4119 39.7099 16.2328 39.6273 16.0357C39.5443 15.8386 39.5015 15.6274 39.5011 15.4139ZM54.0101 28.8001C54.0101 28.9491 53.9804 29.0965 53.9227 29.2341C53.865 29.3717 53.7803 29.4967 53.6737 29.602C53.567 29.7073 53.4403 29.7909 53.301 29.8479C53.1616 29.9048 53.0122 29.9342 52.8613 29.9342C52.7104 29.9342 52.5611 29.9048 52.4217 29.8479C52.2823 29.7909 52.1557 29.7073 52.049 29.602C51.9423 29.4967 51.8577 29.3717 51.8 29.2341C51.7422 29.0965 51.7125 28.9491 51.7125 28.8001L51.7125 1.61841C51.7125 1.46949 51.7422 1.32202 51.8 1.18443C51.8577 1.04684 51.9423 0.921831 52.049 0.816526C52.1557 0.711222 52.2823 0.627689 52.4217 0.570698C52.561 0.513706 52.7104 0.484375 52.8613 0.484375C53.0122 0.484375 53.1616 0.513706 53.301 0.570698C53.4403 0.627689 53.567 0.711222 53.6736 0.816526C53.7803 0.921831 53.865 1.04684 53.9227 1.18443C53.9804 1.32202 54.0101 1.46949 54.0101 1.61841L54.0101 28.8001Z" fill="#E96F64"/>
</svg>
